# xmcd
#
# Track frame offsets:
#	150
#	10044
#	20129
#	31261
#	42539
#	58110
#	70411
#	84934
#	100737
#	112001
#	125021
#
# Disc length: 1810 seconds
# Revision: 0
# Processed by: cddbd v1.5.2PL0 Copyright (c) Steve Scherf et al.
# Submitted via: dBpowerAMP V12.0
#
DISCID=9207100b
DTITLE=The Boxcars - Familiar With the Ground
DYEAR=2016
DGENRE=Country
TTITLE0=Lungs
TTITLE1=Raised on Pain
TTITLE2=When the Bluegrass Is Covered With Snow
TTITLE3=Familiar With the Ground
TTITLE4=Hogan's Goat
TTITLE5=Branchville Line
TTITLE6=Cold Hard Truth
TTITLE7=Let the Water Wash Over Me
TTITLE8=Marshallville
TTITLE9=I'm Dreaming of You
TTITLE10=Brown Hill
EXTD=
EXTT0=
EXTT1=
EXTT2=
EXTT3=
EXTT4=
EXTT5=
EXTT6=
EXTT7=
EXTT8=
EXTT9=
EXTT10=
PLAYORDER=
